<svg width="101" height="24" viewBox="0 0 101 24" fill="none" xmlns="http://www.w3.org/2000/svg">
<g clip-path="url(#clip0_2777_12239)">
<path d="M46.0593 4.93365V6.67365H41.7096V18.853H39.6534V6.67335H35.3037V4.93335H46.0596L46.0593 4.93365Z" fill="#1A1B37"/>
<path d="M48.5666 10.9046C49.1993 9.28343 49.7726 8.57153 52.3232 8.57153V10.5092C49.3772 10.3115 48.527 11.3594 48.527 14.0087V18.8528H46.6289V8.72963H48.527V9.40193C48.527 9.81713 48.4874 10.1336 48.3095 10.7267C48.2699 10.8848 48.2105 11.0429 48.3689 11.0825C48.4676 11.1023 48.527 11.0033 48.5666 10.9046Z" fill="#1A1B37"/>
<path d="M53.4304 4.61719H55.4866V6.83149H53.4304V4.61719ZM53.5096 8.72959H55.4077V18.8528H53.5096V8.72959Z" fill="#1A1B37"/>
<path d="M60.39 12.8621C62.2089 12.7238 64.0479 12.9413 64.0281 11.8934C64.0083 11.063 63.5337 10.2326 61.4577 10.2326C59.6781 10.2326 59.0652 10.9049 58.9269 11.8934H57.0684C57.4242 9.58008 59.2038 8.57178 61.5369 8.57178C63.87 8.57178 65.9262 9.36258 65.9262 13.0799V18.8531H64.0281V17.8844C64.0281 17.5088 64.0677 17.2121 64.2456 16.6982C64.2852 16.5203 64.3641 16.3622 64.2258 16.3028C64.0677 16.2434 64.0281 16.4018 63.9885 16.5005C63.4152 18.0032 62.0706 19.0115 60.2319 19.0115C58.3932 19.0115 56.7522 17.7461 56.7522 16.0259C56.7522 13.7126 58.4526 13.0007 60.3903 12.8624L60.39 12.8621ZM60.5088 14.3846C59.283 14.5625 58.6503 14.9975 58.6503 15.9269C58.6503 16.7375 59.3226 17.489 60.9636 17.2715C62.5059 17.0738 64.0083 15.9467 64.0281 13.3961C63.4152 14.1473 62.0508 14.1671 60.5088 14.3846Z" fill="#1A1B37"/>
<path d="M69.8017 4.61719V18.8528H67.9036V4.61719H69.8017Z" fill="#1A1B37"/>
<path d="M71.937 4.93359H75.1005L81.3087 17.2513C81.3483 17.3107 81.3879 17.3896 81.4866 17.3698C81.6249 17.3302 81.6054 17.2117 81.5262 17.0338C81.3285 16.579 81.2691 16.1044 81.2691 15.5311V4.93359H83.3253V18.853H80.1618L73.9536 6.53529C73.9338 6.47589 73.8549 6.37719 73.7757 6.41679C73.6374 6.47619 73.6569 6.57489 73.7361 6.75279C73.9338 7.20759 73.9932 7.68219 73.9932 8.25549V18.853H71.937V4.93359Z" fill="#006BFF"/>
<path d="M94.2592 14.345H86.7064C86.8447 15.9662 87.952 17.2712 89.7907 17.2712C91.1551 17.2712 91.8271 16.5989 92.1832 15.4325H94.1407C93.7255 17.3108 92.3416 19.0112 89.7514 19.0112C86.5681 19.0112 84.8281 16.6583 84.8281 13.7915C84.8281 10.7468 86.8054 8.57178 89.7118 8.57178C91.9657 8.57178 94.3186 10.0547 94.3186 13.6532C94.3186 13.9301 94.2988 14.1278 94.2592 14.3453V14.345ZM92.4205 12.7634C92.302 11.2805 91.3528 10.2326 89.8105 10.2326C87.9124 10.2326 87.082 11.399 86.8051 12.7634H92.4202H92.4205Z" fill="#006BFF"/>
<path d="M98.0354 10.3906V15.6895C98.0354 16.8364 98.2727 17.1922 99.38 17.1922H100.883V18.853H99.2219C97.1261 18.853 96.1376 18.082 96.1376 15.8872V10.3906H94.2395V8.72981H96.1376V5.88281H98.0357V8.72981H100.883V10.3906H98.0357H98.0354Z" fill="#006BFF"/>
<path d="M16.53 7.47H24L16.53 0V7.47Z" fill="#1A1B37"/>
<path d="M7.47 7.47V0L0 7.47H7.47Z" fill="#1A1B37"/>
<path d="M7.47 16.53H0L7.47 24V16.53Z" fill="#1A1B37"/>
<path d="M16.53 16.53V24L24 16.53H16.53Z" fill="#1A1B37"/>
<path d="M20.9999 11.9999L12 3L3.00009 11.9999L12 20.9998L20.9999 11.9999Z" fill="#006BFF"/>
</g>
<defs>
<clipPath id="clip0_2777_12239">
<rect width="100.89" height="24" fill="white"/>
</clipPath>
</defs>
</svg>
